<svg xmlns="http://www.w3.org/2000/svg" viewBox="0 0 48 48" fill="none">
  <path fill="#fff" fill-rule="evenodd" clip-rule="evenodd" d="M23.9858 3.14392C20.9544 3.14392 18.4969 5.60137 18.4969 8.63279C18.4969 9.84493 18.8899 10.9653 19.5553 11.8735L19.4945 11.981L7.53539 33.5074C6.90296 33.2531 6.21226 33.1132 5.48887 33.1132C2.45745 33.1132 0 35.5706 0 38.602C0 41.6335 2.45745 44.0909 5.48887 44.0909C8.52029 44.0909 10.9777 41.6335 10.9777 38.602C10.9777 37.3266 10.5427 36.1528 9.81295 35.2208C14.5096 34.1184 19.3262 33.6069 24.1509 33.6986C28.8699 33.6513 33.5772 34.1687 38.1725 35.2395C37.4515 36.1684 37.0223 37.3351 37.0223 38.602C37.0223 41.6335 39.4797 44.0909 42.5112 44.0909C45.5426 44.0909 48 41.6335 48 38.602C48 35.5706 45.5426 33.1132 42.5112 33.1132C41.7593 33.1132 41.0427 33.2643 40.3901 33.538L28.4139 11.9627L28.3864 11.914C29.07 10.9987 29.4747 9.86301 29.4747 8.63279C29.4747 7.17705 28.8964 5.78094 27.867 4.75157C26.8377 3.72221 25.4416 3.14392 23.9858 3.14392ZM26.5954 13.4628C25.8193 13.8831 24.9304 14.1217 23.9858 14.1217C23.0247 14.1217 22.1213 13.8746 21.3356 13.4406L21.3333 13.4447L10.6483 32.6557C15.0882 31.7325 19.6166 31.3029 24.1509 31.375C28.5569 31.3413 32.9542 31.7736 37.2693 32.6649L26.5954 13.4628ZM27.2243 8.63279C27.2243 9.94262 26.4352 11.1235 25.2251 11.6247C24.015 12.126 22.6221 11.8489 21.6959 10.9227C20.7697 9.99653 20.4926 8.60362 20.9939 7.3935C21.4951 6.18338 22.676 5.39436 23.9858 5.39436C25.7723 5.39938 27.2192 6.84634 27.2243 8.63279ZM5.47674 41.8222C7.26288 41.8289 8.71721 40.3882 8.72731 38.602L8.70901 38.5837C8.70904 36.8023 7.27026 35.3554 5.48887 35.3453C3.70272 35.3453 2.25384 36.7915 2.25049 38.5777C2.24715 40.3638 3.69061 41.8154 5.47674 41.8222ZM43.7392 41.5948C44.9504 41.0941 45.7404 39.9127 45.7404 38.602V38.5837C45.7354 36.8038 44.2911 35.3636 42.5112 35.3636C41.2005 35.3599 40.0168 36.1466 39.5127 37.3564C39.0086 38.5662 39.2834 39.9606 40.2088 40.8887C41.1343 41.8168 42.5279 42.0955 43.7392 41.5948Z"/>
</svg>
