<svg width="24" height="24" viewBox="0 0 24 24" fill="none" xmlns="http://www.w3.org/2000/svg">
<g clip-path="url(#clip0_4767_108)">
<path d="M1.51213 16.47L8.90274 3.81738C9.84152 4.37008 14.5754 6.9899 15.34 7.48817L7.94934 20.1415C7.14108 21.2093 0.488127 18.0904 1.51213 16.4693V16.47Z" fill="#FBBC04"/>
<path d="M22.7463 16.4697L15.3557 3.81791C14.3225 2.09843 12.0972 1.47356 10.2695 2.48913C8.44176 3.50469 7.88524 5.69234 8.91846 7.4886L16.3091 20.142C17.3423 21.8607 19.5676 22.4855 21.3953 21.47C23.1432 20.4543 23.7795 18.1891 22.7463 16.4712V16.4697Z" fill="#4285F4"/>
<path d="M4.70991 21.959C6.75884 21.959 8.41983 20.3393 8.41983 18.3412C8.41983 16.3432 6.75884 14.7235 4.70991 14.7235C2.66098 14.7235 1 16.3432 1 18.3412C1 20.3393 2.66098 21.959 4.70991 21.959Z" fill="#34A853"/>
</g>
<defs>
<clipPath id="clip0_4767_108">
<rect width="22.2609" height="20" fill="white" transform="translate(1 2)"/>
</clipPath>
</defs>
</svg>
