<svg width="24" height="24" viewBox="0 0 24 24" fill="none" xmlns="http://www.w3.org/2000/svg">
<g clip-path="url(#clip0_4767_139)">
<path d="M4.16023 13.7606C4.16023 14.5243 4.32789 15.1106 4.54695 15.4653C4.83422 15.9299 5.26258 16.1267 5.69938 16.1267C6.26273 16.1267 6.77813 15.9869 7.77125 14.6133C8.56695 13.5123 9.50453 11.9669 10.1353 10.998L11.2037 9.35664C11.9458 8.21672 12.8047 6.94953 13.7896 6.09055C14.5934 5.38945 15.4608 5 16.3336 5C17.7991 5 19.1949 5.84922 20.2633 7.44195C21.4324 9.18625 22 11.3834 22 13.6507C22 14.9986 21.7344 15.989 21.2823 16.7715C20.8455 17.5282 19.9941 18.2842 18.5621 18.2842V16.1267C19.7883 16.1267 20.0943 15 20.0943 13.7105C20.0943 11.873 19.6659 9.83375 18.7221 8.37672C18.0523 7.34313 17.1843 6.71164 16.2294 6.71164C15.1966 6.71164 14.3654 7.49055 13.4313 8.87961C12.9348 9.6175 12.4249 10.5168 11.8526 11.5315L11.2224 12.6478C9.95656 14.8922 9.63594 15.4034 9.00305 16.247C7.89367 17.7244 6.94648 18.2842 5.69938 18.2842C4.22008 18.2842 3.28453 17.6436 2.70523 16.6783C2.23227 15.8916 2 14.8595 2 13.6834L4.16023 13.7606Z" fill="#0081FB"/>
<path d="M3.70312 7.59422C4.69359 6.06766 6.12281 5 7.76211 5C8.71156 5 9.65531 5.28102 10.6409 6.0857C11.7188 6.96547 12.8678 8.41422 14.3013 10.802L14.8153 11.6588C16.056 13.7259 16.762 14.7892 17.1751 15.2908C17.7065 15.9348 18.0786 16.1267 18.562 16.1267C19.7881 16.1267 20.0941 15 20.0941 13.7105L21.9998 13.6507C21.9998 14.9986 21.7342 15.989 21.2821 16.7715C20.8453 17.5282 19.994 18.2842 18.562 18.2842C17.6717 18.2842 16.883 18.0909 16.0109 17.268C15.3404 16.6366 14.5566 15.5147 13.9535 14.5062L12.1598 11.5099C11.2598 10.0063 10.4342 8.88516 9.95648 8.37734C9.44258 7.83141 8.7818 7.17203 7.72742 7.17203C6.87406 7.17203 6.1493 7.77094 5.54281 8.68688L3.70312 7.59422Z" fill="url(#paint0_linear_4767_139)"/>
<path d="M7.7275 7.17203C6.87414 7.17203 6.14937 7.77094 5.54289 8.68688C4.68539 9.98125 4.16023 11.9091 4.16023 13.7606C4.16023 14.5243 4.32789 15.1106 4.54695 15.4653L2.70523 16.6783C2.23227 15.8916 2 14.8595 2 13.6834C2 11.5447 2.58703 9.31563 3.70328 7.59422C4.69375 6.06766 6.12297 5 7.76227 5L7.7275 7.17203Z" fill="url(#paint1_linear_4767_139)"/>
</g>
<defs>
<linearGradient id="paint0_linear_4767_139" x1="257.625" y1="748.039" x2="1633.09" y2="817.509" gradientUnits="userSpaceOnUse">
<stop stop-color="#0064E1"/>
<stop offset="0.4" stop-color="#0064E1"/>
<stop offset="0.83" stop-color="#0073EE"/>
<stop offset="1" stop-color="#0082FB"/>
</linearGradient>
<linearGradient id="paint1_linear_4767_139" x1="314.977" y1="971.751" x2="314.977" y2="464.038" gradientUnits="userSpaceOnUse">
<stop stop-color="#0082FB"/>
<stop offset="1" stop-color="#0064E0"/>
</linearGradient>
<clipPath id="clip0_4767_139">
<rect width="20" height="13.3594" fill="white" transform="translate(2 5)"/>
</clipPath>
</defs>
</svg>
